<?xml version="1.0" encoding="UTF-8"?>
<svg version="1.1" viewBox="0 0 2048 2048" width="1280" height="1280" xmlns="http://www.w3.org/2000/svg">
<style>
  .inverted-svg {
    fill: currentColor;
    filter: invert(100%);
  }
  .inverted-svg {  /* New rule targeting background color */
    background-color: black;
  }
</style>
<g class="inverted-svg">
<rect width="1280" height="1280" fill="black"/>
<path transform="translate(538,242)" d="m0 0h970l30 2 34 4 33 6 36 9 28 9 22 8 26 11 29 14 25 14 16 10 18 12 14 10 18 14 13 11 11 9 8 8 8 7 17 17 7 8 11 12 9 11 12 15 13 18 14 21 8 13 10 17 15 29 11 24 13 34 9 28 8 31 8 42 6 48v242l-6 50-7 39-9 35-12 36-11 28-13 28-13 25-15 25-14 21-13 18-13 16-8 10-10 11-7 8-9 9-2 3h-2l-2 4-8 7-9 9-8 7-14 12-14 11-16 12-27 18-20 12-18 10-17 9-29 13-29 11-31 10-36 9-26 5-39 5-25 2-26 1h-828l-89 1-25 12-33 15-38 18-56 26-39 18-32 15-60 28-33 15-34 16-33 15-27 13-29 13-36 17-95 44h-3v-1042l8-57 8-38 8-28 12-36 10-24 14-30 14-26 13-21 16-24 12-16 11-14 12-14 9-10 1-2h2l2-4 28-28h2v-2l8-7 13-11 16-13 18-13 16-11 19-12 21-12 23-12 28-13 29-11 30-10 31-8 29-6 34-5 22-2zm4 125-27 2-29 4-36 8-26 8-20 7-30 13-25 13-20 12-12 8-14 10-13 10-13 11-20 18-13 13-7 8-10 11-11 14-14 19-16 25-12 22-11 22-11 27-9 27-7 26-6 32-3 22-2 35v815l9-3 36-17 33-15 38-18 30-14 28-13 26-12 16-7 14-7 56-26 39-18 30-14 41-19 24-11 4-1h41l143 1h536l220-1 36-2 32-4 34-7 34-10 29-11 24-11 23-12 20-12 16-11 16-12 16-13 11-10 8-7 18-18v-2h2l7-8 11-13 15-20 9-13 11-17 12-22 8-16 11-25 9-25 8-27 6-26 5-32 2-25v-225l-3-32-5-30-6-26-10-32-11-28-16-33-14-24-14-21-9-12-11-14-12-14-16-17-10-10-8-7-10-9-14-11-16-12-20-13-22-13-21-11-25-11-28-10-27-8-28-6-26-4-19-2-16-1z"/>
<path transform="translate(1022,794)" d="m0 0 19 1 21 5 17 7 14 9 10 8 13 13 11 16 9 19 4 13 3 18v21l-3 17-4 14-9 19-12 17-14 14-11 8-16 9-20 7-17 3-15 1-20-2-16-4-16-7-11-6-12-9-8-7-7-8-10-14-8-15-7-21-2-12-1-19 3-21 4-14 7-16 9-15 13-15 13-11 14-9 18-8 16-4z"/>
<path transform="translate(1443,794)" d="m0 0 18 1 19 4 15 6 16 9 10 8 10 9 10 12 10 16 7 17 4 16 1 6v31l-4 18-5 14-7 14-10 14-11 12-12 10-16 9-14 6-19 5-22 2-21-2-15-4-17-7-15-9-14-12-7-7-11-15-8-15-7-21-3-19v-18l3-18 7-21 7-13 8-12 12-13 9-8 15-10 17-8 18-5z"/>
<path transform="translate(600,794)" d="m0 0 20 1 18 4 16 6 14 8 11 8 13 12 10 13 8 14 5 11 5 16 2 12 1 16-2 19-4 17-8 18-7 12-8 10-9 10-11 9-13 8-15 7-17 5-12 2-15 1-21-2-15-4-15-6-14-8-14-11-10-10-9-12-8-14-6-14-4-15-2-13v-20l3-18 4-14 9-19 7-10 8-10 11-11 14-10 17-9 18-6 12-2z"/></g>
</svg>
