<?xml version="1.0" encoding="UTF-8"?>
<svg version="1.1" viewBox="0 0 2048 2048" width="1280" height="1280" xmlns="http://www.w3.org/2000/svg">
<path transform="translate(619,1087)" d="m0 0h423l44 2 29 3 32 5 31 7 25 7 30 10 32 13 29 14 21 11 20 12 27 18 15 11 14 11 13 11 14 12 12 12 2 1v2l4 2v2l4 2 7 8 9 9 7 8 11 13 13 17 9 12 11 16 14 22 13 23 10 19 14 31 11 29 9 28 9 34 7 37 4 32 2 26v54l-3 26-4 22-7 27-8 23-11 25-11 21-10 16-12 17-11 14-3 4h-2l-2 4-16 17-13 12-13 11-19 14-21 13-16 9-24 11-25 9-21 6-22 5-30 4-14 1h-299l-13-3-12-6-10-8-7-7-8-13-4-11-2-12 1-16 5-16 7-11 10-11 10-7 15-6 15-2 287-1 26-3 24-6 21-8 22-11 19-13 11-9 12-11 5-6h2l2-4 12-15 13-21 9-19 9-27 4-20 2-18v-37l-3-32-4-26-6-27-9-31-12-31-12-26-13-24-12-19-12-17-10-13-9-11-12-14-27-27-11-9-17-14-14-10-15-10-20-12-18-10-33-15-34-12-30-8-26-5-21-3-25-2-25-1h-418l-27 1-31 3-28 5-25 6-26 8-24 9-21 9-19 10-18 10-17 11-20 14-16 13-11 9-6 5-24 24-7 8-12 14-13 17-12 17-7 11-11 19-12 23-11 25-10 28-7 24-6 26-4 24-3 33v43l4 27 6 22 8 20 8 16 10 16 11 14 12 13 9 9 14 11 10 7 15 9 19 9 20 7 22 5 26 3 284 1 17 2 12 5 11 7 11 11 7 11 5 13 1 4v23l-5 16-6 10-11 12-8 6-13 6-15 3h-296l-26-2-29-5-23-6-27-9-27-12-24-13-21-14-17-13-10-9-8-7-24-24-9-11-10-13-16-24-10-18-12-25-9-24-7-24-5-24-3-20-2-27v-24l2-36 3-27 6-36 8-33 7-25 10-29 10-24 11-24 14-27 16-27 17-25 14-19 10-12 9-11 15-16 1-2h2l2-4 20-20 8-7 12-11 14-11 15-12 20-14 20-13 15-9 18-10 17-9 29-13 34-13 29-9 28-7 24-5 25-4 28-3z"/>
<path transform="translate(816,63)" d="m0 0h30l30 2 31 4 34 7 31 9 25 9 25 11 16 8 19 10 24 15 18 13 14 11 11 9 12 11 8 7 14 14v2h2l7 8 9 10 13 17 9 12 12 18 11 18 12 22 13 28 10 26 8 26 7 28 5 28 3 24 1 15v54l-2 24-4 28-6 28-9 32-9 25-10 23-10 21-13 23-8 13-14 20-9 12-9 11-13 15-16 17-17 16-13 11-10 8-16 12-15 10-21 13-20 11-28 13-26 10-29 9-24 6-26 5-34 4-14 1h-48l-26-2-32-5-23-5-29-8-26-9-26-11-16-8-21-11-21-13-20-14-18-14-14-12-12-11-6-5-7-8-12-12-9-11-12-14-13-18-12-18-9-15-12-22-12-25-10-26-8-25-6-22-6-30-4-30-2-29v-30l2-30 4-29 5-26 8-30 9-27 12-29 9-19 13-23 15-24 8-11 10-13 13-16 7-8 9-10 23-23 11-9 13-11 19-14 24-16 21-12 23-12 28-12 36-12 22-6 36-7 36-4zm7 129-28 2-21 3-26 6-23 7-25 10-16 8-24 14-17 12-13 10-14 12-22 22-9 11-12 15-13 20-10 17-14 29-8 22-7 25-5 24-3 28-1 19v11l2 27 4 27 6 26 9 27 10 23 13 25 12 19 13 17 11 13 9 10 16 16 11 9 15 12 24 16 22 12 17 8 24 9 19 6 29 6 35 4h39l27-3 27-5 24-7 20-7 18-8 20-10 18-11 17-12 14-11 12-11 10-9 7-7 7-8 11-13 10-14 10-15 8-13 8-16 8-18 9-25 6-21 5-27 3-28v-39l-3-28-4-22-6-24-11-31-14-29-10-17-10-15-9-12-11-13-8-10h-2l-2-4-5-5h-2v-2l-8-7-14-12-19-14-19-12-18-10-24-11-36-12-27-6-22-3-29-2z"/>
<path transform="translate(1628,511)" d="m0 0 16 1 13 4 11 6 10 9 8 9 8 16 2 10 1 28v169l-1 36h224l17 2 12 5 11 7 11 11 8 13 5 15v23l-5 16-6 10-9 10-10 8-13 6-14 3h-230v39l-1 195-3 11-4 9-6 10-10 10-11 7-12 5-10 2h-18l-12-3-12-6-10-8-7-7-8-13-4-11-2-16-1-223-231-1-13-3-12-6-9-7-8-8-7-11-5-13-2-11v-9l3-16 4-9 6-10 10-11 10-7 15-6 16-2h223l1-227 3-16 4-9 6-10 10-11 10-7 11-5z"/>
</svg>
