<?xml version="1.0" encoding="UTF-8"?>
<svg version="1.1" viewBox="0 0 2048 2048" width="1280" height="1280" xmlns="http://www.w3.org/2000/svg">
<path transform="translate(1090)" d="m0 0h61l1 2 26 5 28 8 29 12 17 9 18 11 16 13 11 9 7 6 7 8 9 10 13 17 16 27 7 14 10 26 5 16 7 31 3 25 2 23v32l-1 26-4 36-4 28-10 47-6 24-24 81-20 67-9 36-10 46-5 36-1 8-1 23-1 7 22-5 56-11 51-9 48-7 37-4 53-4 22-1h77l32 2 44 5 38 7 36 10 22 8 23 10 19 10 17 11 16 12 14 12 14 14 11 14 10 15 12 20 9 21 6 18 6 29 1 9v42l-4 28-6 25-7 21 1 7 8 12 9 14 14 27 6 15 10 32 4 21 2 20v25l-2 21-5 24-6 20-6 16-11 23-7 11-16 24-5 7 1 10 10 36 3 19 2 21v32l-3 27-5 24-7 23-9 21-8 16-8 14-7 11-6 8-13 17-6 7h-2l-2 4-20 20 1 22v29l-2 24-3 20-6 23-9 24-8 16-7 13-11 17-10 13-12 14-9 10-8 7-12 11-19 14-15 10-21 12-21 11-33 14-36 12-25 7-33 8-34 6-37 5-37 4-19 2h-161v-1l-33-3-36-1h-94l-47-1-76-3-101-6-50-3-130-12-112-13-42-5-6 1-15 9-19 9-15 5-21 5-17 2-27 1h-227l-31-1-25-3-21-6-16-6-23-12-13-10-11-9-10-9-11-14-8-10-9-16-8-16-6-18-4-16-3-29v-706l3-27 5-19 7-20 14-26 11-14 12-14 11-10 14-11 13-8 17-9 27-9 13-3 18-2 26-1h247l19 1 21 3 21 6 13 5 13 6 2-5 9-19 14-24 11-18 8-11 13-18 9-10 8-10 11-12 14-13 11-9 20-20 7-8 10-12 11-14 14-18 8-12 12-17 15-24 9-15 16-26 15-25 10-19 12-22 12-23 12-22 11-22 11-23 16-33 12-25 11-25 19-42 17-40 14-34 15-37 15-39 3-7 1-7-3-36v-43l2-22 5-30 7-24 9-21 7-12 8-11 9-10 7-7 14-9 14-7 19-6zm25 115-4 10-3 12-2 19-1 33 2 33 2 20v13l-4 15-14 37-16 41-15 37-16 38-11 26-13 29-16 35-15 33-8 18-10 19-24 48-10 19-15 30-13 23-14 25-7 11-5 9-14 23-12 19-10 15-21 31-21 28-14 18-12 14-11 12v2h-2l-9 11-7 7-8 7-12 11-10 9-7 7-9 11-10 13-7 10-10 17-13 23-9 20-9 23-7 22v7l4 17 2 18 1 21v677l-1 30-2 19 1 1 98 11 95 9 48 4 58 4 75 4 47 2 37 1 155 1 84 4h88l60-4 32-4 42-7 36-9 36-12 28-12 22-12 21-14 15-13 11-11 11-14 9-15 8-19 4-15 3-26-1-19-4-26-3-15v-11l2-12 8-16 11-12 10-9 11-9 21-21 8-10 10-15 8-15 7-18 5-21 1-8v-28l-4-26-7-23-11-26-4-12-1-15 4-16 5-9 10-14 13-15 10-13 14-24 7-19 4-15 2-23-2-20-6-21-8-19-11-18-11-14-12-14-8-10-5-11-3-9v-19l6-16 8-16 8-19 4-13 3-15 1-11v-15l-4-22-6-15-8-16-9-11-11-11-17-12-23-12-19-7-26-7-35-6-22-3-44-3h-71l-36 2-45 4-46 6-51 9-113 23h-27l-21-6-14-7-10-8-11-11-10-15-6-13-5-16-5-28-1-15v-32l5-45 6-33 8-38 15-57 13-43 18-58 10-35 9-38 6-35 3-24 1-16v-42l-2-22-4-23-10-30-12-22-10-13-7-8-14-11-14-9-17-8-16-5-22-5zm-917 980-13 3-12 6-12 10-9 13-5 12-2 12v709l3 14 7 14 9 10 8 7 12 6 11 3 7 1h260l16-1 14-4 11-6 10-9 7-8 7-14 2-9 1-9v-697l-1-13-4-13-6-11-9-10-9-7-12-6-12-3z"/>
<path transform="translate(1087)" d="m0 0"/>
</svg>
