<?xml version="1.0" encoding="UTF-8"?>
<svg version="1.1" viewBox="0 0 2048 2048" width="1280" height="1280" xmlns="http://www.w3.org/2000/svg">
<path transform="translate(1e3 170)" d="m0 0h41l25 2 34 5 26 6 26 8 24 9 20 9 17 8 24 14 24 16 17 13 10 8 11 9 13 11 14 11 15 13 22 18 17 14 13 11 10 8 13 11 10 8 13 11 22 18 13 11 10 8 13 11 10 8 13 11 14 11 15 13 14 11 14 12 11 9 13 11 10 8 17 14 13 11 22 18 17 14 13 11 22 18 13 11 14 11 12 11 8 7 20 20 9 11 13 16 16 24 12 21 14 29 10 27 8 27 5 24 4 29 2 35v602l-2 34-4 27-7 31-7 23-11 28-13 27-15 25-8 12-9 12-13 16-14 15-16 16-22 18-17 12-18 11-22 12-23 10-33 11-27 6-27 4-33 2h-165l-24-1-24-4-16-5-17-7-15-8-14-10-11-9-16-16-12-16-8-13-8-16-8-24-4-21-1-11-1-32v-261l-2-25-5-25-8-23-8-17-11-18-11-14-12-13-11-9-12-9-17-10-18-8-21-6-18-3h-30l-19 3-18 5-16 7-15 8-17 12-10 9h-2l-2 4h-2v2h-2l-2 4-9 10-11 16-9 16-8 18-6 19-4 18-2 21-1 292-2 25-4 19-7 20-9 19-9 14-10 13-5 6h-2l-2 4-10 9-13 10-15 9-16 8-17 6-20 5-15 2-17 1h-164l-29-1-28-3-29-6-27-8-25-10-25-12-20-12-16-11-13-10-14-12-12-11-14-14-9-11-11-13-12-17-9-14-10-17-12-24-10-25-8-24-6-25-5-28-3-31-1-35v-550l1-47 2-23 5-31 6-25 7-23 11-28 12-25 13-22 8-12 8-11 10-13 2-3h2l2-4 3-4h2l2-4 5-6h2v-2h2v-2h2v-2l8-7 14-13 11-9 13-11 10-8 11-9 13-11 11-9 13-11 10-8 13-11 10-8 13-11 10-8 17-14 13-11 14-11 15-13 10-8 13-11 10-8 13-11 10-8 13-11 10-8 13-11 10-8 13-11 33-27 13-11 11-9 13-11 10-8 13-11 10-8 13-11 10-8 34-28 18-13 15-10 15-9 22-12 21-10 26-10 21-7 28-7 34-6 18-2z"/>
</svg>
