<?xml version="1.0" encoding="UTF-8"?>
<svg version="1.1" viewBox="0 0 2048 2048" width="1280" height="1280" xmlns="http://www.w3.org/2000/svg">
<path transform="translate(1014,127)" d="m0 0h20l22 2 21 4 30 10 20 9 19 11 14 10 13 10 13 12 14 14 9 11 10 13 11 17 10 18 10 21 10 26 2 8 6 2 15 7 26 12 25 13 27 16 12 8 16 11 16 12 22 18 13 12 22 22v2h2l7 8 13 16 10 13 12 17 15 24 12 22 12 24 12 29 10 28 9 31 7 28 7 38 5 36 3 33 1 16 1 31 1 65 2 55 3 44 4 38 5 33 7 36 9 34 10 29 10 23 8 17 12 21 12 19 13 18 14 18 26 32 9 11 11 13 12 16 8 13 7 14 6 18 3 15 1 9v22l-2 17-6 21-8 18-9 15-10 13-6 7-8 7-14 11-17 10-20 8-19 5-12 2-12 1h-1253l-20-2-20-5-20-8-16-9-16-12-16-16-11-15-10-17-8-21-4-18-1-6v-31l3-17 5-17 8-18 8-13 10-13 11-13 8-10 9-11 26-32 10-14 11-15 14-22 13-23 11-24 9-23 10-33 7-30 6-32 4-28 4-40 3-49 1-24 2-108 3-47 6-47 7-38 9-36 9-30 12-32 12-27 11-22 14-24 16-24 14-19 12-14 9-11 7-7 1-2h2l2-4h2l2-4h2l2-4h2v-2l8-7 12-11 11-9 14-11 18-13 26-17 26-15 27-14 29-13 10-5 3-7 8-22 8-18 10-19 12-19 6-8 7-9 11-13 21-21 14-11 11-8 16-10 19-10 23-9 23-6 24-4z"/>
<path transform="translate(758,1727)" d="m0 0h532l10 2 7 8 1 3v8l-9 17-16 24-8 10-9 11-11 12-18 18-11 9-17 13-17 11-16 9-16 8-18 8-33 11-27 6-28 4-13 1h-36l-23-2-28-5-22-6-21-7-19-8-16-8-17-9-21-14-13-10-13-11-13-12-10-10-7-8-12-14-13-19-9-14-8-15v-9l6-8 4-3z"/>
</svg>
