<?xml version="1.0" encoding="UTF-8"?>
<svg version="1.1" viewBox="0 0 2048 912" width="1280" height="1280" xmlns="http://www.w3.org/2000/svg">
<path transform="translate(1132,257)" d="m0 0h21l9 3 9 7 6 10 3 11v18l-4 16-6 15-6 11-10 14-12 14-15 15-3 18-5 38v13l3 8 6 5 3 1h9l10-5 9-8 9-13 7-14 4-15 6-45 4-15 4-6 8-3 20-2h10l1 1v10l-6 47-7 55 1 7 5 5 7 1 8-4 8-6 8-16 4-14 4-1 9 6 3 1 8-7 7-8 11-12 13-13 7-8 7-10v-3l-7-1-7 3-11 12-9 6-7 3-14 1-9-3-5-4-6-12-1-3v-12l6-12 9-8 11-3 9-1h27l65 2 3 2v8l-3 13-6 11-9 11-41 41-7 8-9 10-9 13-3 8 7 1h11l5-5 4-6 4-5 9-6 14-4 10 1 10 5 6 7 3 6 1 8-2 11-5 10-6 5-11 4-6 1h-46l-53-1-3-6v-3l-16 8-8 2-15-1-14-3-8-5-4-5-6-13v-2l-6 3-12 11-11 7-21 7h-18l-12-2-8-5-6-7-3-5-6 1-11 9-10 5-13 4-7 1-18-5-9-7-6-8-6 1-7 6-9 6-19 6-8 1-19-4-14-7-8-7-6-7-4 2-9 10-9 6-13 5-5 1h-18l-12-3-8-4-6-8-5-10-3-11-5 3-13 11-15 9-15 7-21 5-7 1h-11l-17-3-16-7-12-9-7-8-7-12-4-12-2-9v-17l3-16 4-12 9-16 9-11 14-11 15-8 14-4 21-2 16 2 12 4 9 7 7 8 4 9v14l-5 10-7 7-19 9-7 1-2-1v-11l1-4v-11l-3-10-3-5-6-3h-8l-12 5-5 5-6 8-6 14-3 15v21l4 13 7 11 5 4 8 4 4 1h16l14-4 14-7 17-12 12-11 8-8 2-6 2-22 3-21 3-19 5-10 4-3 9-2 15-1h11l2 4-4 35-8 59-2 19 5 7v2l5 1 8-3 11-8 4-8 1-4v-15l2-16 5-19 4-8 12-19 4-5 16-11 14-7 16-3 18-2 13 1 19 3 6-1 4-2 13-1 11 1 2 2-2 22-7 49-3 23v22l4 7 1 1h8l8-6 5-5 6-8 5-12 3-25 4-36 3-21 5-46 6-25 4-10 7-10 5-6 12-6zm10 29-4 4-3 13-5 38-2 13 5-2 8-8 7-10 5-12 6-22v-8l-2-4-4-2zm-166 87-10 3-9 6-7 8-7 14-4 13-2 9v24l5 12 5 6 10 6 9 2 10-5 9-8 8-14 3-11 6-60-4-4-4-1zm304 2-5 2-1 1v7l4 5 2 1h7l7-4 4-5v-6l-1-1zm67 84-11 6-3 4-1 5 8 2h14l3-2 1-8-3-5-3-2z"/>
<path transform="translate(1645,347)" d="m0 0h10l10 3 8 5 4 5 2 5v11l-4 9-4 5-7 4h-13l-3-3-4-13-4-2-10 1-9 6-7 5 6 8 5 4 7 8 8 10 7 14 3 12v16l-3 14-5 10-10 11-8 5-9 3-6 1h-15l-12-3-8-6-6-7-4-8-2-6-1-16-5 3-7 8-8 7-10 8-16 9-13 5-21 4-7 1h-17l-16-3-10-4-10-8-8-8-8-14-4-10-4-18v-17l5-19 8-15 11-14 13-11 14-8 13-4 13-2h24l13 3 9 5 10 9 5 8 2 6v19l-4 11-7 10-9 9-15 9-16 6-15 4-8-1-3-7 2-9 7-4 12-6 9-7 6-10 2-10v-7l-3-8-10-5-9 1-10 4-8 7-6 8-6 12-3 13-1 9 1 13 5 15 6 9 8 6 11 4h15l16-4 16-8 9-6 13-11 3-4h2l2-4 7-10 6-10 3-12 6-52 2-4 19-1h13l6 5 4 7 6-3 8-6zm-37 71-4 41v8l2 6 5 3 7-1 5-5 4-6 1-3v-13l-4-13-9-14-4-3z"/>
<path transform="translate(423,256)" d="m0 0h10l14 2 10 4 11 7 8 10 6 13 2 10-1 14-5 16-5 6-9 3h-10l-2-1 1-6 5-11 1-5v-12l-4-10-5-6-8-4h-15l-8 3-7 6-2 4v15l6 18 12 25 18 35 6 15 5 19 1 13-1 13-4 11-6 11-9 11-7 6-15 8-22 5h-15l-16-4-10-5-10-9-7-10-5-11-3-11v-16l4-16 6-12 7-9 6-7 10-8 17-11 1-3-12-27-6-18-2-12 4-19 4-9 7-10 9-8 15-8 15-4zm-33 139-13 10-8 7-9 12-4 13v9l3 11 3 6 4 5 8 5 6 2 8 1 8-2 6-4 5-4 4-8 1-5v-10l-4-17-8-16-8-14z"/>
<path transform="translate(561,348)" d="m0 0h24l16 4 12 7 10 9 9 13 6 12 2 8v23l-3 19-4 11-11 18-11 12-10 8-10 5-10 3-24 4-20-2-11-3-9-4-10-7-11-11-8-14-4-12-2-10v-8l5-26 4-11 10-16 11-12 13-9 15-7 13-3zm1 25-10 4-7 6-7 10-5 12-4 15-1 6v20l4 13 5 8 7 7 9 3h12l8-3 9-9 8-14 4-14 1-6v-20l-4-17-6-12-6-5-6-3z"/>
<path transform="translate(1216,257)" d="m0 0 9 1 9 5 7 8 3 9v9l-6 9-10 7-5 2h-7l-11-4-5-4-5-10-1-3v-7l4-10 5-7 8-4z"/>
<path transform="translate(855,257)" d="m0 0 10 2 7 4 7 8 3 9v9l-5 8-8 6-8 4h-7l-12-5-6-7-4-9v-10l6-10 7-6z"/>
</svg>
